<svg xmlns="http://www.w3.org/2000/svg" viewBox="0 0 680 564" width="680" height="564" role="img" aria-labelledby="t d">
  <title id="t">Measured attention weights for 3 March 2021, Lab 4</title>
  <desc id="d">Heat-map of measured attention weights from Lab 4, dot-product attention model, greedy decoding. Columns are the 12 characters of the source 3 March 2021; rows are the 11 output tokens 2 0 2 1 - 0 3 - 0 3 &lt;eos&gt;. Each row sums to 1. Largest weights per row: 2: 1.00 on 0 (position 10); 0: 1.00 on 0 (position 10); 2: 1.00 on 2 (position 11); 1: 1.00 on 1 (position 12); -: 1.00 on 1 (position 12); 0: 0.99 on space (position 8); 3: 0.72 on r (position 5), 0.28 on c (position 6); -: 0.51 on c (position 6), 0.21 on r (position 5); 0: 1.00 on space (position 2); 3: 0.99 on 3 (position 1); &lt;eos&gt;: 0.89 on 1 (position 12).</desc>
  <style>
    text { font-family: Inter, system-ui, -apple-system, "Segoe UI", Roboto, Helvetica, Arial, sans-serif; font-size: 15px; fill: #1f2933; }
    .m { font-family: "Source Serif 4", Georgia, "Times New Roman", serif; }
    .i { font-style: italic; }
    .mono { font-family: ui-monospace, SFMono-Regular, Menlo, Consolas, "Liberation Mono", monospace; }
    .note { font-size: 13.5px; fill: #52606d; }
    .acc { fill: #b3541e; }
    .rule { fill: none; stroke: #c5ced8; stroke-width: 1.5; }
  </style>
  <defs>
    <linearGradient id="g" x1="0" x2="1" y1="0" y2="0"><stop offset="0" stop-color="#f4f6f9"/><stop offset="1" stop-color="#16324f"/></linearGradient>
  </defs>
  <rect width="680" height="564" rx="8" fill="#ffffff"/>
  <text x="366" y="26" text-anchor="middle" class="note">source position <tspan class="m i" font-size="16">i</tspan> (one column per character)</text>
  <text transform="translate(24,294) rotate(-90)" text-anchor="middle" class="note">output step <tspan class="m i" font-size="16">t</tspan> (one row per token)</text>
  <text x="168" y="62" text-anchor="middle" class="note" style="font-size:12px">1</text>
  <text x="168" y="84" text-anchor="middle" class="mono" style="font-size:17px">3</text>
  <text x="204" y="62" text-anchor="middle" class="note" style="font-size:12px">2</text>
  <text x="204" y="84" text-anchor="middle" class="mono" style="font-size:17px">␣</text>
  <text x="240" y="62" text-anchor="middle" class="note" style="font-size:12px">3</text>
  <text x="240" y="84" text-anchor="middle" class="mono" style="font-size:17px">M</text>
  <text x="276" y="62" text-anchor="middle" class="note" style="font-size:12px">4</text>
  <text x="276" y="84" text-anchor="middle" class="mono" style="font-size:17px">a</text>
  <text x="312" y="62" text-anchor="middle" class="note" style="font-size:12px">5</text>
  <text x="312" y="84" text-anchor="middle" class="mono" style="font-size:17px">r</text>
  <text x="348" y="62" text-anchor="middle" class="note" style="font-size:12px">6</text>
  <text x="348" y="84" text-anchor="middle" class="mono" style="font-size:17px">c</text>
  <text x="384" y="62" text-anchor="middle" class="note" style="font-size:12px">7</text>
  <text x="384" y="84" text-anchor="middle" class="mono" style="font-size:17px">h</text>
  <text x="420" y="62" text-anchor="middle" class="note" style="font-size:12px">8</text>
  <text x="420" y="84" text-anchor="middle" class="mono" style="font-size:17px">␣</text>
  <text x="456" y="62" text-anchor="middle" class="note" style="font-size:12px">9</text>
  <text x="456" y="84" text-anchor="middle" class="mono" style="font-size:17px">2</text>
  <text x="492" y="62" text-anchor="middle" class="note" style="font-size:12px">10</text>
  <text x="492" y="84" text-anchor="middle" class="mono" style="font-size:17px">0</text>
  <text x="528" y="62" text-anchor="middle" class="note" style="font-size:12px">11</text>
  <text x="528" y="84" text-anchor="middle" class="mono" style="font-size:17px">2</text>
  <text x="564" y="62" text-anchor="middle" class="note" style="font-size:12px">12</text>
  <text x="564" y="84" text-anchor="middle" class="mono" style="font-size:17px">1</text>
  <text x="128" y="120" text-anchor="middle" class="mono" style="font-size:17px">2</text>
  <text x="128" y="156" text-anchor="middle" class="mono" style="font-size:17px">0</text>
  <text x="128" y="192" text-anchor="middle" class="mono" style="font-size:17px">2</text>
  <text x="128" y="228" text-anchor="middle" class="mono" style="font-size:17px">1</text>
  <text x="128" y="264" text-anchor="middle" class="mono" style="font-size:17px">-</text>
  <text x="128" y="300" text-anchor="middle" class="mono" style="font-size:17px">0</text>
  <text x="128" y="336" text-anchor="middle" class="mono" style="font-size:17px">3</text>
  <text x="128" y="372" text-anchor="middle" class="mono" style="font-size:17px">-</text>
  <text x="128" y="408" text-anchor="middle" class="mono" style="font-size:17px">0</text>
  <text x="128" y="444" text-anchor="middle" class="mono" style="font-size:17px">3</text>
  <text x="128" y="479" text-anchor="middle" class="mono" style="font-size:13px">&lt;eos&gt;</text>
  <rect x="150" y="96" width="36" height="36" fill="#f4f6f9" stroke="#ffffff" stroke-width="1.5"/>
  <rect x="186" y="96" width="36" height="36" fill="#f4f6f9" stroke="#ffffff" stroke-width="1.5"/>
  <rect x="222" y="96" width="36" height="36" fill="#f4f6f9" stroke="#ffffff" stroke-width="1.5"/>
  <rect x="258" y="96" width="36" height="36" fill="#f4f6f9" stroke="#ffffff" stroke-width="1.5"/>
  <rect x="294" y="96" width="36" height="36" fill="#f4f6f9" stroke="#ffffff" stroke-width="1.5"/>
  <rect x="330" y="96" width="36" height="36" fill="#f4f6f9" stroke="#ffffff" stroke-width="1.5"/>
  <rect x="366" y="96" width="36" height="36" fill="#f4f6f9" stroke="#ffffff" stroke-width="1.5"/>
  <rect x="402" y="96" width="36" height="36" fill="#f4f6f9" stroke="#ffffff" stroke-width="1.5"/>
  <rect x="438" y="96" width="36" height="36" fill="#f4f6f9" stroke="#ffffff" stroke-width="1.5"/>
  <rect x="474" y="96" width="36" height="36" fill="#16324f" stroke="#ffffff" stroke-width="1.5"/>
  <text x="492" y="118" text-anchor="middle" class="mono" style="font-size:11px;fill:#ffffff">1.00</text>
  <rect x="510" y="96" width="36" height="36" fill="#f4f6f9" stroke="#ffffff" stroke-width="1.5"/>
  <rect x="546" y="96" width="36" height="36" fill="#f4f6f9" stroke="#ffffff" stroke-width="1.5"/>
  <rect x="150" y="132" width="36" height="36" fill="#f4f6f9" stroke="#ffffff" stroke-width="1.5"/>
  <rect x="186" y="132" width="36" height="36" fill="#f4f6f9" stroke="#ffffff" stroke-width="1.5"/>
  <rect x="222" y="132" width="36" height="36" fill="#f4f6f9" stroke="#ffffff" stroke-width="1.5"/>
  <rect x="258" y="132" width="36" height="36" fill="#f4f6f9" stroke="#ffffff" stroke-width="1.5"/>
  <rect x="294" y="132" width="36" height="36" fill="#f4f6f9" stroke="#ffffff" stroke-width="1.5"/>
  <rect x="330" y="132" width="36" height="36" fill="#f4f6f9" stroke="#ffffff" stroke-width="1.5"/>
  <rect x="366" y="132" width="36" height="36" fill="#f4f6f9" stroke="#ffffff" stroke-width="1.5"/>
  <rect x="402" y="132" width="36" height="36" fill="#f4f6f9" stroke="#ffffff" stroke-width="1.5"/>
  <rect x="438" y="132" width="36" height="36" fill="#f4f6f9" stroke="#ffffff" stroke-width="1.5"/>
  <rect x="474" y="132" width="36" height="36" fill="#16324f" stroke="#ffffff" stroke-width="1.5"/>
  <text x="492" y="154" text-anchor="middle" class="mono" style="font-size:11px;fill:#ffffff">1.00</text>
  <rect x="510" y="132" width="36" height="36" fill="#f4f6f9" stroke="#ffffff" stroke-width="1.5"/>
  <rect x="546" y="132" width="36" height="36" fill="#f4f6f9" stroke="#ffffff" stroke-width="1.5"/>
  <rect x="150" y="168" width="36" height="36" fill="#f4f6f9" stroke="#ffffff" stroke-width="1.5"/>
  <rect x="186" y="168" width="36" height="36" fill="#f4f6f9" stroke="#ffffff" stroke-width="1.5"/>
  <rect x="222" y="168" width="36" height="36" fill="#f4f6f9" stroke="#ffffff" stroke-width="1.5"/>
  <rect x="258" y="168" width="36" height="36" fill="#f4f6f9" stroke="#ffffff" stroke-width="1.5"/>
  <rect x="294" y="168" width="36" height="36" fill="#f4f6f9" stroke="#ffffff" stroke-width="1.5"/>
  <rect x="330" y="168" width="36" height="36" fill="#f4f6f9" stroke="#ffffff" stroke-width="1.5"/>
  <rect x="366" y="168" width="36" height="36" fill="#f4f6f9" stroke="#ffffff" stroke-width="1.5"/>
  <rect x="402" y="168" width="36" height="36" fill="#f4f6f9" stroke="#ffffff" stroke-width="1.5"/>
  <rect x="438" y="168" width="36" height="36" fill="#f4f6f9" stroke="#ffffff" stroke-width="1.5"/>
  <rect x="474" y="168" width="36" height="36" fill="#f4f6f9" stroke="#ffffff" stroke-width="1.5"/>
  <rect x="510" y="168" width="36" height="36" fill="#16324f" stroke="#ffffff" stroke-width="1.5"/>
  <text x="528" y="190" text-anchor="middle" class="mono" style="font-size:11px;fill:#ffffff">1.00</text>
  <rect x="546" y="168" width="36" height="36" fill="#f4f6f9" stroke="#ffffff" stroke-width="1.5"/>
  <rect x="150" y="204" width="36" height="36" fill="#f4f6f9" stroke="#ffffff" stroke-width="1.5"/>
  <rect x="186" y="204" width="36" height="36" fill="#f4f6f9" stroke="#ffffff" stroke-width="1.5"/>
  <rect x="222" y="204" width="36" height="36" fill="#f4f6f9" stroke="#ffffff" stroke-width="1.5"/>
  <rect x="258" y="204" width="36" height="36" fill="#f4f6f9" stroke="#ffffff" stroke-width="1.5"/>
  <rect x="294" y="204" width="36" height="36" fill="#f4f6f9" stroke="#ffffff" stroke-width="1.5"/>
  <rect x="330" y="204" width="36" height="36" fill="#f4f6f9" stroke="#ffffff" stroke-width="1.5"/>
  <rect x="366" y="204" width="36" height="36" fill="#f4f6f9" stroke="#ffffff" stroke-width="1.5"/>
  <rect x="402" y="204" width="36" height="36" fill="#f4f6f9" stroke="#ffffff" stroke-width="1.5"/>
  <rect x="438" y="204" width="36" height="36" fill="#f4f6f9" stroke="#ffffff" stroke-width="1.5"/>
  <rect x="474" y="204" width="36" height="36" fill="#f4f6f9" stroke="#ffffff" stroke-width="1.5"/>
  <rect x="510" y="204" width="36" height="36" fill="#f4f6f9" stroke="#ffffff" stroke-width="1.5"/>
  <rect x="546" y="204" width="36" height="36" fill="#16324f" stroke="#ffffff" stroke-width="1.5"/>
  <text x="564" y="226" text-anchor="middle" class="mono" style="font-size:11px;fill:#ffffff">1.00</text>
  <rect x="150" y="240" width="36" height="36" fill="#f4f6f9" stroke="#ffffff" stroke-width="1.5"/>
  <rect x="186" y="240" width="36" height="36" fill="#f4f6f9" stroke="#ffffff" stroke-width="1.5"/>
  <rect x="222" y="240" width="36" height="36" fill="#f4f6f9" stroke="#ffffff" stroke-width="1.5"/>
  <rect x="258" y="240" width="36" height="36" fill="#f4f6f9" stroke="#ffffff" stroke-width="1.5"/>
  <rect x="294" y="240" width="36" height="36" fill="#f4f6f9" stroke="#ffffff" stroke-width="1.5"/>
  <rect x="330" y="240" width="36" height="36" fill="#f4f6f9" stroke="#ffffff" stroke-width="1.5"/>
  <rect x="366" y="240" width="36" height="36" fill="#f4f6f9" stroke="#ffffff" stroke-width="1.5"/>
  <rect x="402" y="240" width="36" height="36" fill="#f4f6f9" stroke="#ffffff" stroke-width="1.5"/>
  <rect x="438" y="240" width="36" height="36" fill="#f4f6f9" stroke="#ffffff" stroke-width="1.5"/>
  <rect x="474" y="240" width="36" height="36" fill="#f4f6f9" stroke="#ffffff" stroke-width="1.5"/>
  <rect x="510" y="240" width="36" height="36" fill="#f4f6f9" stroke="#ffffff" stroke-width="1.5"/>
  <rect x="546" y="240" width="36" height="36" fill="#16324f" stroke="#ffffff" stroke-width="1.5"/>
  <text x="564" y="262" text-anchor="middle" class="mono" style="font-size:11px;fill:#ffffff">1.00</text>
  <rect x="150" y="276" width="36" height="36" fill="#f4f6f9" stroke="#ffffff" stroke-width="1.5"/>
  <rect x="186" y="276" width="36" height="36" fill="#f4f6f9" stroke="#ffffff" stroke-width="1.5"/>
  <rect x="222" y="276" width="36" height="36" fill="#f4f6f9" stroke="#ffffff" stroke-width="1.5"/>
  <rect x="258" y="276" width="36" height="36" fill="#f4f6f9" stroke="#ffffff" stroke-width="1.5"/>
  <rect x="294" y="276" width="36" height="36" fill="#f4f6f9" stroke="#ffffff" stroke-width="1.5"/>
  <rect x="330" y="276" width="36" height="36" fill="#f4f6f9" stroke="#ffffff" stroke-width="1.5"/>
  <rect x="366" y="276" width="36" height="36" fill="#f3f5f8" stroke="#ffffff" stroke-width="1.5"/>
  <rect x="402" y="276" width="36" height="36" fill="#173350" stroke="#ffffff" stroke-width="1.5"/>
  <text x="420" y="298" text-anchor="middle" class="mono" style="font-size:11px;fill:#ffffff">0.99</text>
  <rect x="438" y="276" width="36" height="36" fill="#f4f6f9" stroke="#ffffff" stroke-width="1.5"/>
  <rect x="474" y="276" width="36" height="36" fill="#f4f6f9" stroke="#ffffff" stroke-width="1.5"/>
  <rect x="510" y="276" width="36" height="36" fill="#f4f6f9" stroke="#ffffff" stroke-width="1.5"/>
  <rect x="546" y="276" width="36" height="36" fill="#f4f6f9" stroke="#ffffff" stroke-width="1.5"/>
  <rect x="150" y="312" width="36" height="36" fill="#f4f6f9" stroke="#ffffff" stroke-width="1.5"/>
  <rect x="186" y="312" width="36" height="36" fill="#f4f6f9" stroke="#ffffff" stroke-width="1.5"/>
  <rect x="222" y="312" width="36" height="36" fill="#f4f6f9" stroke="#ffffff" stroke-width="1.5"/>
  <rect x="258" y="312" width="36" height="36" fill="#f4f6f9" stroke="#ffffff" stroke-width="1.5"/>
  <rect x="294" y="312" width="36" height="36" fill="#556a7f" stroke="#ffffff" stroke-width="1.5"/>
  <text x="312" y="334" text-anchor="middle" class="mono" style="font-size:11px;fill:#ffffff">0.72</text>
  <rect x="330" y="312" width="36" height="36" fill="#b5bfc9" stroke="#ffffff" stroke-width="1.5"/>
  <text x="348" y="334" text-anchor="middle" class="mono" style="font-size:11px;fill:#1f2933">0.28</text>
  <rect x="366" y="312" width="36" height="36" fill="#f4f6f9" stroke="#ffffff" stroke-width="1.5"/>
  <rect x="402" y="312" width="36" height="36" fill="#f4f6f9" stroke="#ffffff" stroke-width="1.5"/>
  <rect x="438" y="312" width="36" height="36" fill="#f4f6f9" stroke="#ffffff" stroke-width="1.5"/>
  <rect x="474" y="312" width="36" height="36" fill="#f4f6f9" stroke="#ffffff" stroke-width="1.5"/>
  <rect x="510" y="312" width="36" height="36" fill="#f4f6f9" stroke="#ffffff" stroke-width="1.5"/>
  <rect x="546" y="312" width="36" height="36" fill="#f4f6f9" stroke="#ffffff" stroke-width="1.5"/>
  <rect x="150" y="348" width="36" height="36" fill="#f4f6f9" stroke="#ffffff" stroke-width="1.5"/>
  <rect x="186" y="348" width="36" height="36" fill="#f4f6f9" stroke="#ffffff" stroke-width="1.5"/>
  <rect x="222" y="348" width="36" height="36" fill="#f4f6f9" stroke="#ffffff" stroke-width="1.5"/>
  <rect x="258" y="348" width="36" height="36" fill="#eff2f5" stroke="#ffffff" stroke-width="1.5"/>
  <rect x="294" y="348" width="36" height="36" fill="#c6cdd6" stroke="#ffffff" stroke-width="1.5"/>
  <text x="312" y="370" text-anchor="middle" class="mono" style="font-size:11px;fill:#1f2933">0.21</text>
  <rect x="330" y="348" width="36" height="36" fill="#8291a1" stroke="#ffffff" stroke-width="1.5"/>
  <text x="348" y="370" text-anchor="middle" class="mono" style="font-size:11px;fill:#ffffff">0.51</text>
  <rect x="366" y="348" width="36" height="36" fill="#d8dde3" stroke="#ffffff" stroke-width="1.5"/>
  <text x="384" y="370" text-anchor="middle" class="mono" style="font-size:11px;fill:#1f2933">0.13</text>
  <rect x="402" y="348" width="36" height="36" fill="#f4f6f9" stroke="#ffffff" stroke-width="1.5"/>
  <rect x="438" y="348" width="36" height="36" fill="#f4f6f9" stroke="#ffffff" stroke-width="1.5"/>
  <rect x="474" y="348" width="36" height="36" fill="#f4f6f9" stroke="#ffffff" stroke-width="1.5"/>
  <rect x="510" y="348" width="36" height="36" fill="#f4f6f9" stroke="#ffffff" stroke-width="1.5"/>
  <rect x="546" y="348" width="36" height="36" fill="#d8dde3" stroke="#ffffff" stroke-width="1.5"/>
  <text x="564" y="370" text-anchor="middle" class="mono" style="font-size:11px;fill:#1f2933">0.13</text>
  <rect x="150" y="384" width="36" height="36" fill="#f4f6f9" stroke="#ffffff" stroke-width="1.5"/>
  <rect x="186" y="384" width="36" height="36" fill="#173350" stroke="#ffffff" stroke-width="1.5"/>
  <text x="204" y="406" text-anchor="middle" class="mono" style="font-size:11px;fill:#ffffff">1.00</text>
  <rect x="222" y="384" width="36" height="36" fill="#f4f6f9" stroke="#ffffff" stroke-width="1.5"/>
  <rect x="258" y="384" width="36" height="36" fill="#f4f6f9" stroke="#ffffff" stroke-width="1.5"/>
  <rect x="294" y="384" width="36" height="36" fill="#f4f6f9" stroke="#ffffff" stroke-width="1.5"/>
  <rect x="330" y="384" width="36" height="36" fill="#f4f6f9" stroke="#ffffff" stroke-width="1.5"/>
  <rect x="366" y="384" width="36" height="36" fill="#f4f6f9" stroke="#ffffff" stroke-width="1.5"/>
  <rect x="402" y="384" width="36" height="36" fill="#f3f5f8" stroke="#ffffff" stroke-width="1.5"/>
  <rect x="438" y="384" width="36" height="36" fill="#f4f6f9" stroke="#ffffff" stroke-width="1.5"/>
  <rect x="474" y="384" width="36" height="36" fill="#f4f6f9" stroke="#ffffff" stroke-width="1.5"/>
  <rect x="510" y="384" width="36" height="36" fill="#f4f6f9" stroke="#ffffff" stroke-width="1.5"/>
  <rect x="546" y="384" width="36" height="36" fill="#f4f6f9" stroke="#ffffff" stroke-width="1.5"/>
  <rect x="150" y="420" width="36" height="36" fill="#183451" stroke="#ffffff" stroke-width="1.5"/>
  <text x="168" y="442" text-anchor="middle" class="mono" style="font-size:11px;fill:#ffffff">0.99</text>
  <rect x="186" y="420" width="36" height="36" fill="#f4f6f9" stroke="#ffffff" stroke-width="1.5"/>
  <rect x="222" y="420" width="36" height="36" fill="#f4f6f9" stroke="#ffffff" stroke-width="1.5"/>
  <rect x="258" y="420" width="36" height="36" fill="#f4f6f9" stroke="#ffffff" stroke-width="1.5"/>
  <rect x="294" y="420" width="36" height="36" fill="#f4f6f9" stroke="#ffffff" stroke-width="1.5"/>
  <rect x="330" y="420" width="36" height="36" fill="#f4f6f9" stroke="#ffffff" stroke-width="1.5"/>
  <rect x="366" y="420" width="36" height="36" fill="#f4f6f9" stroke="#ffffff" stroke-width="1.5"/>
  <rect x="402" y="420" width="36" height="36" fill="#f4f6f9" stroke="#ffffff" stroke-width="1.5"/>
  <rect x="438" y="420" width="36" height="36" fill="#f3f5f8" stroke="#ffffff" stroke-width="1.5"/>
  <rect x="474" y="420" width="36" height="36" fill="#f4f6f9" stroke="#ffffff" stroke-width="1.5"/>
  <rect x="510" y="420" width="36" height="36" fill="#f4f6f9" stroke="#ffffff" stroke-width="1.5"/>
  <rect x="546" y="420" width="36" height="36" fill="#f4f6f9" stroke="#ffffff" stroke-width="1.5"/>
  <rect x="150" y="456" width="36" height="36" fill="#f1f3f6" stroke="#ffffff" stroke-width="1.5"/>
  <rect x="186" y="456" width="36" height="36" fill="#e7eaef" stroke="#ffffff" stroke-width="1.5"/>
  <rect x="222" y="456" width="36" height="36" fill="#eef1f5" stroke="#ffffff" stroke-width="1.5"/>
  <rect x="258" y="456" width="36" height="36" fill="#f3f5f8" stroke="#ffffff" stroke-width="1.5"/>
  <rect x="294" y="456" width="36" height="36" fill="#f4f6f9" stroke="#ffffff" stroke-width="1.5"/>
  <rect x="330" y="456" width="36" height="36" fill="#f4f6f9" stroke="#ffffff" stroke-width="1.5"/>
  <rect x="366" y="456" width="36" height="36" fill="#f4f6f9" stroke="#ffffff" stroke-width="1.5"/>
  <rect x="402" y="456" width="36" height="36" fill="#f4f6f9" stroke="#ffffff" stroke-width="1.5"/>
  <rect x="438" y="456" width="36" height="36" fill="#f3f5f8" stroke="#ffffff" stroke-width="1.5"/>
  <rect x="474" y="456" width="36" height="36" fill="#f4f6f9" stroke="#ffffff" stroke-width="1.5"/>
  <rect x="510" y="456" width="36" height="36" fill="#f4f6f9" stroke="#ffffff" stroke-width="1.5"/>
  <rect x="546" y="456" width="36" height="36" fill="#2f4862" stroke="#ffffff" stroke-width="1.5"/>
  <text x="564" y="478" text-anchor="middle" class="mono" style="font-size:11px;fill:#ffffff">0.89</text>
  <rect x="150" y="96" width="432" height="396" fill="none" stroke="#c5ced8" stroke-width="1"/>
  <path class="rule" d="M108,100 h-6 V236 h6"/>
  <text x="96" y="173" text-anchor="end" class="note">year</text>
  <path class="rule" d="M108,280 h-6 V344 h6"/>
  <text x="96" y="317" text-anchor="end" class="note">month</text>
  <path class="rule" d="M108,388 h-6 V452 h6"/>
  <text x="96" y="425" text-anchor="end" class="note">day</text>
  <path d="M588,99 h7 v30 h-7" style="fill:none;stroke:#b3541e;stroke-width:1.5"/>
  <text x="602" y="111" text-anchor="start" class="note acc">each row</text>
  <text x="602" y="128" text-anchor="start" class="note acc">sums to 1</text>
  <text x="150" y="534" text-anchor="start" class="m " style="font-size:18px"><tspan class="i">α</tspan><tspan dy="4.3" font-size="12.2" class="i">t</tspan><tspan font-size="12.2">,</tspan><tspan font-size="12.2" class="i">i</tspan></text>
  <text x="198" y="533" text-anchor="middle" class="note">0</text>
  <rect x="208" y="522" width="100" height="13" fill="url(#g)" stroke="#c5ced8"/>
  <text x="318" y="533" text-anchor="middle" class="note">1</text>
  <text x="582" y="533" text-anchor="end" class="note acc">measured: Lab 4, dot-product attention</text>
</svg>
